# xmcd
#
# Track frame offsets:
#  150
#  13978
#  42113
#  57733
#  75528
#  107933
#  122523
#  162023
#  169410
#  185705
#  205928
#  216818
#
# Disc length: 3150 seconds
#
# Revision: 0
# Processed by: cddbd v1.5.2PL0 Copyright (c) Steve Scherf et al.
# Submitted via: Collectorz.com_Music_Collector 6.9
#
DISCID=ab0c4c0c
DTITLE=Genesis - Archive 1967-1975 [CD2 - Lamb Lies Down On Broadway part2)
DYEAR=1998
DGENRE=Progressive Rock
TTITLE0=Lilywhite Lilith
TTITLE1=The Waiting Room
TTITLE2=Anyway
TTITLE3=Here Comes The Supernatural Anaesthetist
TTITLE4=The Lamia
TTITLE5=Silent Sorrow In Empty Boats
TTITLE6=The Colony Of Slippermen
TTITLE7=Ravine
TTITLE8=The Light Dies Down On Broadway
TTITLE9=Riding The Scree
TTITLE10=In The Rapids
TTITLE11=It
EXTD=
EXTT0=
EXTT1=
EXTT2=
EXTT3=
EXTT4=
EXTT5=
EXTT6=
EXTT7=
EXTT8=
EXTT9=
EXTT10=
EXTT11=
PLAYORDER=
